<svg width="109" height="45" viewBox="0 0 109 45" fill="none" xmlns="http://www.w3.org/2000/svg">
<path d="M17.418 4.28185L20.3867 1.31315C21.2834 0.416447 22.7372 0.416449 23.6339 1.31316L26.6026 4.28185L26.6026 41.0205L23.6339 43.9892C22.7372 44.8859 21.2834 44.8859 20.3867 43.9892L17.418 41.0205L17.418 4.28185Z" fill="white"/>
<path d="M17.418 4.28185L20.3867 1.31315C21.2834 0.416447 22.7372 0.416449 23.6339 1.31316L26.6026 4.28185L26.6026 41.0205L23.6339 43.9892C22.7372 44.8859 21.2834 44.8859 20.3867 43.9892L17.418 41.0205L17.418 4.28185Z" fill="url(#paint0_linear_1164_1678)"/>
<path d="M17.418 4.28128L17.418 41.0199L20.3505 43.9525C20.7561 44.358 21.2876 44.6135 21.8576 44.6768L22.0103 44.6938L22.0103 0.607422L21.7775 0.633283C21.2593 0.690861 20.7762 0.92309 20.4075 1.29177L17.418 4.28128Z" fill="white"/>
<path d="M17.418 4.28128L17.418 41.0199L20.3505 43.9525C20.7561 44.358 21.2876 44.6135 21.8576 44.6768L22.0103 44.6938L22.0103 0.607422L21.7775 0.633283C21.2593 0.690861 20.7762 0.92309 20.4075 1.29177L17.418 4.28128Z" fill="url(#paint1_linear_1164_1678)"/>
<path d="M15.1211 38.7236L8.2326 31.2949L8.2326 14.0061L15.1211 6.57735L15.1211 38.7236Z" fill="white"/>
<path d="M15.1211 38.7236L8.2326 31.2949L8.2326 14.0061L15.1211 6.57735L15.1211 38.7236Z" fill="url(#paint2_linear_1164_1678)"/>
<path d="M28.8984 38.7236L35.7869 31.2949L35.7869 14.0061L28.8984 6.57735L28.8984 38.7236Z" fill="white"/>
<path d="M28.8984 38.7236L35.7869 31.2949L35.7869 14.0061L28.8984 6.57735L28.8984 38.7236Z" fill="url(#paint3_linear_1164_1678)"/>
<path d="M8.23349 14.0066L8.23349 31.2954L11.6777 35.0098L11.6777 10.2922L8.23349 14.0066Z" fill="white"/>
<path d="M8.23349 14.0066L8.23349 31.2954L11.6777 35.0098L11.6777 10.2922L8.23349 14.0066Z" fill="url(#paint4_linear_1164_1678)"/>
<path d="M35.788 14.0066L35.788 31.2954L32.3438 35.0098L32.3438 10.2922L35.788 14.0066Z" fill="white"/>
<path d="M35.788 14.0066L35.788 31.2954L32.3438 35.0098L32.3438 10.2922L35.788 14.0066Z" fill="url(#paint5_linear_1164_1678)"/>
<path d="M5.9375 29.5391L5.9375 15.7621L0.659577 21.1267C-0.229879 22.0308 -0.217933 23.4848 0.686258 24.3741L5.9375 29.5391Z" fill="white"/>
<path d="M5.9375 29.5391L5.9375 15.7621L0.659577 21.1267C-0.229879 22.0308 -0.217933 23.4848 0.686258 24.3741L5.9375 29.5391Z" fill="url(#paint6_linear_1164_1678)"/>
<path d="M38.084 29.5391L38.084 15.7621L43.3619 21.1267C44.2514 22.0308 44.2394 23.4848 43.3352 24.3741L38.084 29.5391Z" fill="white"/>
<path d="M38.084 29.5391L38.084 15.7621L43.3619 21.1267C44.2514 22.0308 44.2394 23.4848 43.3352 24.3741L38.084 29.5391Z" fill="url(#paint7_linear_1164_1678)"/>
<path d="M2.49219 19.2629L0.658508 21.1267C-0.230947 22.0308 -0.219001 23.4847 0.68519 24.3741L2.49219 26.1514L2.49219 19.2629Z" fill="white"/>
<path d="M2.49219 19.2629L0.658508 21.1267C-0.230947 22.0308 -0.219001 23.4847 0.68519 24.3741L2.49219 26.1514L2.49219 19.2629Z" fill="url(#paint8_linear_1164_1678)"/>
<path d="M41.5273 19.2629L43.361 21.1267C44.2505 22.0308 44.2385 23.4847 43.3343 24.3741L41.5273 26.1514L41.5273 19.2629Z" fill="white"/>
<path d="M41.5273 19.2629L43.361 21.1267C44.2505 22.0308 44.2385 23.4847 43.3343 24.3741L41.5273 26.1514L41.5273 19.2629Z" fill="url(#paint9_linear_1164_1678)"/>
<path fill-rule="evenodd" clip-rule="evenodd" d="M22.0046 43.4124L22.0106 2.99997L22.2402 3L22.2342 43.4124L22.0046 43.4124Z" fill="url(#paint10_linear_1164_1678)"/>
<path fill-rule="evenodd" clip-rule="evenodd" d="M11.6786 33.4421L11.6786 12.3174L11.9082 12.3174L11.9082 33.4421L11.6786 33.4421Z" fill="url(#paint11_linear_1164_1678)"/>
<path fill-rule="evenodd" clip-rule="evenodd" d="M32.3429 33.4421L32.3429 12.3174L32.1133 12.3174L32.1133 33.4421L32.3429 33.4421Z" fill="url(#paint12_linear_1164_1678)"/>
<path fill-rule="evenodd" clip-rule="evenodd" d="M2.26257 25.4062L2.26257 20.125L2.49219 20.125L2.49219 25.4062L2.26257 25.4062Z" fill="url(#paint13_linear_1164_1678)"/>
<path fill-rule="evenodd" clip-rule="evenodd" d="M41.757 25.4062L41.757 20.125L41.5273 20.125L41.5273 25.4062L41.757 25.4062Z" fill="url(#paint14_linear_1164_1678)"/>
<path fill-rule="evenodd" clip-rule="evenodd" d="M5.70788 26.7836L5.70788 18.7471L5.9375 18.7471L5.9375 26.7836L5.70788 26.7836Z" fill="url(#paint15_linear_1164_1678)"/>
<path fill-rule="evenodd" clip-rule="evenodd" d="M38.3136 26.7836L38.3136 18.7471L38.084 18.7471L38.084 26.7836L38.3136 26.7836Z" fill="url(#paint16_linear_1164_1678)"/>
<path fill-rule="evenodd" clip-rule="evenodd" d="M14.8915 38.0349L14.8915 16.9102L15.1211 16.9102L15.1211 38.0349L14.8915 38.0349Z" fill="url(#paint17_linear_1164_1678)"/>
<path fill-rule="evenodd" clip-rule="evenodd" d="M35.5575 29.3092L35.5575 15.5322L35.7871 15.5322L35.7871 29.3092L35.5575 29.3092Z" fill="url(#paint18_linear_1164_1678)"/>
<path fill-rule="evenodd" clip-rule="evenodd" d="M26.3747 40.9082L26.3798 6.57711L26.6094 6.57715L26.6043 40.9082L26.3747 40.9082Z" fill="url(#paint19_linear_1164_1678)"/>
<path fill-rule="evenodd" clip-rule="evenodd" d="M68.2784 15.3028C69.2929 15.3028 70.1153 14.4803 70.1153 13.4658C70.1153 12.4513 69.2929 11.6289 68.2784 11.6289C67.2639 11.6289 66.4414 12.4513 66.4414 13.4658C66.4414 14.4803 67.2639 15.3028 68.2784 15.3028ZM56.4531 29.4585L56.4589 29.4655C56.461 32.8557 57.9842 34.3608 61.2501 34.3608C62.2338 34.3608 63.265 34.1863 63.8044 33.9642V30.9498C63.4395 31.0767 62.8684 31.2195 62.1227 31.2195C60.917 31.2195 60.2031 30.7436 60.2031 29.1412V20.8914H60.1973V17.7978H60.2031V13.3556H60.1973V11.6581H56.4531V29.4585ZM66.449 34.3609H70.1932V17.1688H66.449V34.3609ZM82.9327 33.9642C82.3933 34.1863 81.3621 34.3608 80.3784 34.3608C77.1103 34.3608 75.5872 32.8536 75.5872 29.4585V20.2026H73.0488V17.1089H75.5872V11.6581H79.3314V17.1089H82.5837V20.2026H79.3314V29.1412C79.3314 30.7436 80.0453 31.2195 81.251 31.2195C81.9967 31.2195 82.5678 31.0767 82.9327 30.9498V33.9642ZM89.2644 32.8684C89.2644 33.6927 88.5962 34.3609 87.7719 34.3609C86.9476 34.3609 86.2794 33.6927 86.2794 32.8684C86.2794 32.0441 86.9476 31.3759 87.7719 31.3759C88.5962 31.3759 89.2644 32.0441 89.2644 32.8684ZM96.0619 13.4658C96.0619 14.4803 95.2395 15.3028 94.225 15.3028C93.2105 15.3028 92.3881 14.4803 92.3881 13.4658C92.3881 12.4513 93.2105 11.6289 94.225 11.6289C95.2395 11.6289 96.0619 12.4513 96.0619 13.4658ZM108.858 33.9642C108.318 34.1863 107.287 34.3608 106.303 34.3608C103.035 34.3608 101.512 32.8536 101.512 29.4585V20.2026H98.9738V17.1089H101.512V11.6581H105.256V17.1089H108.509V20.2026H105.256V29.1412C105.256 30.7436 105.97 31.2195 107.176 31.2195C107.922 31.2195 108.493 31.0767 108.858 30.9498V33.9642ZM96.1181 34.3608H92.374V17.1688H96.1181V34.3608Z" fill="white"/>
<defs>
<linearGradient id="paint0_linear_1164_1678" x1="22.0103" y1="40.5612" x2="5.99585" y2="31.0058" gradientUnits="userSpaceOnUse">
<stop stop-color="#C014DA"/>
<stop offset="0.364049" stop-color="#A300BB"/>
<stop offset="1" stop-color="#6D2CC1"/>
</linearGradient>
<linearGradient id="paint1_linear_1164_1678" x1="40.0352" y1="93.4872" x2="55.147" y2="87.201" gradientUnits="userSpaceOnUse">
<stop stop-color="#833AFC"/>
<stop offset="0.369792" stop-color="#D01DEB"/>
<stop offset="0.753231" stop-color="#EF81FF"/>
<stop offset="0.985947" stop-color="#F4ABFF"/>
</linearGradient>
<linearGradient id="paint2_linear_1164_1678" x1="2.49222" y1="9.66024" x2="5.10464" y2="37.7663" gradientUnits="userSpaceOnUse">
<stop stop-color="#B94B1D"/>
<stop offset="0.590684" stop-color="#D96D3E"/>
<stop offset="1" stop-color="#F5BE7C"/>
</linearGradient>
<linearGradient id="paint3_linear_1164_1678" x1="34.2944" y1="6.57735" x2="40.9361" y2="9.86972" gradientUnits="userSpaceOnUse">
<stop stop-color="#FF8DED"/>
<stop offset="0.307292" stop-color="#FF54E4"/>
<stop offset="1" stop-color="#F01CCE"/>
</linearGradient>
<linearGradient id="paint4_linear_1164_1678" x1="10.3" y1="12.8523" x2="6.88149" y2="13.8469" gradientUnits="userSpaceOnUse">
<stop stop-color="#FBE889"/>
<stop offset="0.470046" stop-color="#E39F4D"/>
<stop offset="1" stop-color="#C95C2C"/>
</linearGradient>
<linearGradient id="paint5_linear_1164_1678" x1="33.9511" y1="13.0071" x2="22.6072" y2="25.666" gradientUnits="userSpaceOnUse">
<stop stop-color="#8C0D78"/>
<stop offset="0.444229" stop-color="#C517AA"/>
<stop offset="0.786683" stop-color="#FB33DB"/>
</linearGradient>
<linearGradient id="paint6_linear_1164_1678" x1="7.54481" y1="30.2279" x2="10.2676" y2="21.7336" gradientUnits="userSpaceOnUse">
<stop stop-color="#FA9B72"/>
<stop offset="0.412035" stop-color="#FB6A3D"/>
<stop offset="0.854167" stop-color="#B53C16"/>
</linearGradient>
<linearGradient id="paint7_linear_1164_1678" x1="36.4767" y1="30.2279" x2="33.7539" y2="21.7336" gradientUnits="userSpaceOnUse">
<stop stop-color="#FF9399"/>
<stop offset="0.412035" stop-color="#FE3850"/>
<stop offset="0.854167" stop-color="#D90922"/>
</linearGradient>
<linearGradient id="paint8_linear_1164_1678" x1="-0.0335924" y1="18.0582" x2="-2.23547" y2="23.0102" gradientUnits="userSpaceOnUse">
<stop stop-color="#FF9473"/>
<stop offset="0.24679" stop-color="#FF906C"/>
<stop offset="0.989583" stop-color="#C74C17"/>
</linearGradient>
<linearGradient id="paint9_linear_1164_1678" x1="44.0531" y1="18.0582" x2="46.255" y2="23.0102" gradientUnits="userSpaceOnUse">
<stop stop-color="#FF7E8A"/>
<stop offset="0.989583" stop-color="#FF4646"/>
</linearGradient>
<linearGradient id="paint10_linear_1164_1678" x1="22.0106" y1="33.8834" x2="23.5012" y2="3.76258" gradientUnits="userSpaceOnUse">
<stop stop-color="white" stop-opacity="0"/>
<stop offset="0.685133" stop-color="white"/>
<stop offset="1" stop-color="white" stop-opacity="0"/>
</linearGradient>
<linearGradient id="paint11_linear_1164_1678" x1="11.6832" y1="28.461" x2="12.09" y2="12.6881" gradientUnits="userSpaceOnUse">
<stop stop-color="white" stop-opacity="0"/>
<stop offset="0.685133" stop-color="white"/>
<stop offset="1" stop-color="white" stop-opacity="0"/>
</linearGradient>
<linearGradient id="paint12_linear_1164_1678" x1="32.3383" y1="28.461" x2="31.9315" y2="12.6881" gradientUnits="userSpaceOnUse">
<stop stop-color="white" stop-opacity="0"/>
<stop offset="0.685133" stop-color="white"/>
<stop offset="1" stop-color="white" stop-opacity="0"/>
</linearGradient>
<linearGradient id="paint13_linear_1164_1678" x1="2.26714" y1="24.1609" x2="2.29259" y2="20.2152" gradientUnits="userSpaceOnUse">
<stop stop-color="white" stop-opacity="0"/>
<stop offset="0.685133" stop-color="white"/>
<stop offset="1" stop-color="white" stop-opacity="0"/>
</linearGradient>
<linearGradient id="paint14_linear_1164_1678" x1="41.7524" y1="24.1609" x2="41.7269" y2="20.2152" gradientUnits="userSpaceOnUse">
<stop stop-color="white" stop-opacity="0"/>
<stop offset="0.685133" stop-color="white"/>
<stop offset="1" stop-color="white" stop-opacity="0"/>
</linearGradient>
<linearGradient id="paint15_linear_1164_1678" x1="5.71246" y1="24.8887" x2="5.77137" y2="18.8847" gradientUnits="userSpaceOnUse">
<stop stop-color="white" stop-opacity="0"/>
<stop offset="0.685133" stop-color="white"/>
<stop offset="1" stop-color="white" stop-opacity="0"/>
</linearGradient>
<linearGradient id="paint16_linear_1164_1678" x1="38.309" y1="24.8887" x2="38.2501" y2="18.8847" gradientUnits="userSpaceOnUse">
<stop stop-color="white" stop-opacity="0"/>
<stop offset="0.685133" stop-color="white"/>
<stop offset="1" stop-color="white" stop-opacity="0"/>
</linearGradient>
<linearGradient id="paint17_linear_1164_1678" x1="14.8961" y1="33.0538" x2="15.3029" y2="17.2808" gradientUnits="userSpaceOnUse">
<stop stop-color="white" stop-opacity="0"/>
<stop offset="0.685133" stop-color="white"/>
<stop offset="1" stop-color="white" stop-opacity="0"/>
</linearGradient>
<linearGradient id="paint18_linear_1164_1678" x1="35.5621" y1="26.0607" x2="35.7352" y2="15.77" gradientUnits="userSpaceOnUse">
<stop stop-color="white" stop-opacity="0"/>
<stop offset="0.685133" stop-color="white"/>
<stop offset="1" stop-color="white" stop-opacity="0"/>
</linearGradient>
<linearGradient id="paint19_linear_1164_1678" x1="26.3804" y1="32.8131" x2="27.4575" y2="7.20763" gradientUnits="userSpaceOnUse">
<stop stop-color="white" stop-opacity="0"/>
<stop offset="0.685133" stop-color="white"/>
<stop offset="1" stop-color="white" stop-opacity="0"/>
</linearGradient>
</defs>
</svg>
